<?xml version="1.0"?>
<svg xmlns="http://www.w3.org/2000/svg" viewBox="0 0 50 50">
    <path d="M 24.068359 7.9375 C 23.151217 7.9375 22.188381 8.2183597 21.392578 8.8457031 C 21.049915 9.1158299 20.759308 9.4740013 20.523438 9.8789062 C 19.776761 9.2935298 18.881284 9 18.005859 9 C 17.067764 9 16.107521 9.3187851 15.333984 9.9746094 C 14.560448 10.630434 14.005859 11.669689 14.005859 12.900391 L 14.005859 14.699219 A 1.0001 1.0001 0 0 0 14.007812 14.769531 L 14.03125 21 C 12.33125 21.7 10.005859 24.029688 10.005859 27.929688 C 10.005859 30.229688 10.9 32.211719 11 32.511719 L 13.900391 38.011719 C 15.400391 41.111719 18.500391 43.011719 21.900391 43.011719 L 31 43.011719 C 36 43.011719 40 39.011719 40 34.011719 L 40 16.011719 C 40 11.611719 37.5 11.011719 36 11.011719 C 35.3 11.011719 34.499219 11.110937 33.699219 11.710938 C 32.999219 9.5109375 31.4 9.0117188 30 9.0117188 C 28.924352 9.0117188 28.044971 9.3010259 27.445312 9.78125 C 27.245174 9.4610109 27.019107 9.1656468 26.75 8.9316406 C 25.974638 8.2574131 25.006455 7.9375 24.068359 7.9375 z M 24 10.011719 C 25.5 10.011719 26 11.211719 26 12.011719 L 26 15.011719 C 26 15.611719 26.4 16.011719 27 16.011719 C 27.6 16.011719 28 15.611719 28 15.011719 L 28 13.011719 C 28 12.111719 28.3 11.011719 30 11.011719 C 31 11.011719 32 11.211719 32 14.011719 L 32 16.011719 C 32 16.611719 32.4 17.011719 33 17.011719 C 33.6 17.011719 34 16.611719 34 16.011719 C 34 13.411719 35 13.011719 36 13.011719 C 37 13.011719 38 13.411719 38 16.011719 L 38 34.011719 C 38 37.911719 34.9 41.011719 31 41.011719 L 21.900391 41.011719 C 19.200391 41.011719 16.799609 39.511328 15.599609 37.111328 L 12.800781 31.511719 C 12.500781 30.911719 12.005859 29.330078 12.005859 27.830078 C 12.005859 23.830078 14.999609 22.912109 15.099609 22.912109 C 15.499609 22.812109 16.005859 22.429688 16.005859 21.929688 L 15.996094 14.847656 A 1.0001 1.0001 0 0 0 16.005859 14.699219 L 16.005859 12.900391 C 16.005859 12.231092 16.250489 11.819176 16.626953 11.5 C 17.003417 11.180824 17.543955 11 18.005859 11 C 18.467764 11 19.000362 11.178134 19.375 11.503906 C 19.749638 11.829679 20.005859 12.266667 20.005859 13 L 20.005859 13.748047 L 20.005859 14.699219 A 1.0001 1.0001 0 1 0 22.005859 14.699219 L 22.005859 13.748047 L 22.005859 13 L 22.005859 11.933594 C 22.036419 11.135861 22.546585 10.011719 24 10.011719 z"/>
</svg>
